<svg width="501" height="310" viewBox="0 0 501 310" fill="none" xmlns="http://www.w3.org/2000/svg">
<line x1="130" x2="130" y2="310" stroke="#181818" stroke-width="12"/>
<path d="M113.618 279.481C81.5827 276.552 51.9098 261.385 30.7721 237.135C9.63452 212.885 -1.3403 181.419 0.130758 149.284C1.60182 117.148 15.4055 86.8172 38.6702 64.5999C61.935 42.3827 92.8695 29.99 125.039 30L125.035 42.5C96.0826 42.491 68.2415 53.6444 47.3032 73.6399C26.3649 93.6355 13.9416 120.934 12.6177 149.855C11.2937 178.777 21.1711 207.096 40.1949 228.921C59.2188 250.746 85.9245 264.396 114.756 267.033L113.618 279.481Z" fill="#181818"/>
<path d="M146.086 30.6869C177.915 34.0375 207.247 49.4693 228.037 73.8025C248.826 98.1357 259.491 129.516 257.832 161.478C256.173 193.44 242.318 223.549 219.121 245.599C195.924 267.649 165.153 279.962 133.148 280L133.133 267.5C161.937 267.466 189.632 256.384 210.509 236.539C231.386 216.694 243.856 189.596 245.349 160.831C246.842 132.065 237.244 103.822 218.533 81.9223C199.822 60.0224 173.424 46.1338 144.778 43.1182L146.086 30.6869Z" fill="#181818"/>
<path d="M261.141 280V274.094L268.781 272.781V236.547L261.141 235.234V229.281H278.016V272.781L285.656 274.094V280H261.141ZM268.312 216.766V206.875H278.016V216.766H268.312ZM312.562 280.984C309.156 280.984 305.969 280.641 303 279.953C300.031 279.266 296.875 278.203 293.531 276.766L293.438 264.719H300.422L302.156 271.984C303.906 272.703 305.594 273.234 307.219 273.578C308.875 273.891 310.656 274.047 312.562 274.047C316.312 274.047 319 273.328 320.625 271.891C322.25 270.453 323.062 268.672 323.062 266.547C323.062 264.547 322.234 262.859 320.578 261.484C318.953 260.078 315.984 258.891 311.672 257.922C305.547 256.516 301.031 254.641 298.125 252.297C295.25 249.922 293.812 246.766 293.812 242.828C293.812 240.078 294.609 237.625 296.203 235.469C297.797 233.281 300.016 231.547 302.859 230.266C305.703 228.984 309.016 228.344 312.797 228.344C316.641 228.344 319.922 228.781 322.641 229.656C325.391 230.531 327.781 231.703 329.812 233.172L330.281 244.75H323.344L321.844 238C320.75 237.188 319.453 236.562 317.953 236.125C316.453 235.688 314.734 235.469 312.797 235.469C309.922 235.469 307.578 236.141 305.766 237.484C303.984 238.828 303.094 240.516 303.094 242.547C303.094 243.734 303.344 244.766 303.844 245.641C304.375 246.516 305.375 247.312 306.844 248.031C308.312 248.719 310.469 249.406 313.312 250.094C320.375 251.75 325.297 253.859 328.078 256.422C330.891 258.984 332.297 262.141 332.297 265.891C332.297 270.172 330.703 273.766 327.516 276.672C324.359 279.547 319.375 280.984 312.562 280.984ZM338.766 280V274.094L346.406 272.781V214.141L338.766 212.828V206.875H355.641V236.031C357.391 233.594 359.531 231.703 362.062 230.359C364.594 229.016 367.406 228.344 370.5 228.344C375.938 228.344 380.156 229.969 383.156 233.219C386.156 236.469 387.656 241.469 387.656 248.219V272.781L395.297 274.094V280H370.781V274.094L378.422 272.781V248.125C378.422 243.938 377.516 240.844 375.703 238.844C373.922 236.844 371.25 235.844 367.688 235.844C365.156 235.844 362.844 236.453 360.75 237.672C358.688 238.859 356.984 240.484 355.641 242.547V272.781L363.281 274.094V280H338.766ZM401.156 280V274.094L408.797 272.781V214.141L401.156 212.828V206.875H418.031V272.781L425.672 274.094V280H401.156ZM442.828 300.484C442.109 300.484 441.172 300.391 440.016 300.203C438.859 300.047 437.969 299.891 437.344 299.734L438.281 292.469C438.812 292.531 439.547 292.578 440.484 292.609C441.422 292.672 442.062 292.703 442.406 292.703C444.375 292.703 445.969 291.953 447.188 290.453C448.438 288.953 449.594 286.906 450.656 284.312L452.859 278.969L434.906 235.984L429.469 235.234V229.281H450.75V235.234L444.609 236.172L454.5 261.531L456.891 268.141H457.172L468.891 236.172L462.422 235.234V229.281H483.281V235.234L478.031 235.984L458.062 287.781C457.125 290.219 455.984 292.391 454.641 294.297C453.328 296.234 451.703 297.75 449.766 298.844C447.859 299.938 445.547 300.484 442.828 300.484Z" fill="#181818"/>
</svg>
