<svg width="581" height="252" viewBox="0 0 581 252" fill="none" xmlns="http://www.w3.org/2000/svg">
<line x1="113.071" x2="113.071" y2="252" stroke="#181818" stroke-width="16"/>
<path d="M86.3286 224.3C60.7734 218.753 38.3406 203.567 23.6969 181.901C9.05322 160.235 3.32612 133.758 7.70699 107.977C12.0879 82.1964 26.2394 59.097 47.2177 43.4844C68.196 27.8718 94.3859 20.948 120.339 24.1534L118.346 40.2889C96.5456 37.5963 74.5461 43.4123 56.9243 56.5269C39.3025 69.6415 27.4152 89.045 23.7353 110.701C20.0554 132.357 24.8661 154.598 37.1668 172.797C49.4675 190.996 68.311 203.753 89.7775 208.412L86.3286 224.3Z" fill="#181818"/>
<path d="M142.132 27.7022C166.016 33.9576 186.805 48.695 200.616 69.1607C214.427 89.6265 220.314 114.421 217.177 138.91C214.04 163.4 202.094 185.91 183.57 202.234C165.047 218.558 141.214 227.579 116.525 227.613L116.503 211.354C137.242 211.326 157.262 203.748 172.821 190.036C188.38 176.324 198.415 157.416 201.05 136.845C203.685 116.273 198.74 95.4462 187.139 78.255C175.539 61.0637 158.075 48.6843 138.013 43.4298L142.132 27.7022Z" fill="#181818"/>
<path d="M248.024 138.128C245.379 138.128 243.16 137.232 241.368 135.44C239.576 133.648 238.68 131.429 238.68 128.784C238.68 126.139 239.576 123.92 241.368 122.128C243.16 120.336 245.379 119.44 248.024 119.44C250.584 119.44 252.76 120.336 254.552 122.128C256.344 123.92 257.24 126.139 257.24 128.784C257.24 131.429 256.344 133.648 254.552 135.44C252.76 137.232 250.584 138.128 248.024 138.128ZM255.192 147.472V218H240.6V147.472H255.192ZM299.95 219.152C294.403 219.152 289.411 218.171 284.974 216.208C280.622 214.16 277.166 211.429 274.606 208.016C272.046 204.517 270.681 200.635 270.51 196.368H285.614C285.87 199.355 287.278 201.872 289.838 203.92C292.483 205.883 295.769 206.864 299.694 206.864C303.79 206.864 306.947 206.096 309.166 204.56C311.47 202.939 312.622 200.891 312.622 198.416C312.622 195.771 311.342 193.808 308.782 192.528C306.307 191.248 302.339 189.84 296.878 188.304C291.587 186.853 287.278 185.445 283.95 184.08C280.622 182.715 277.721 180.624 275.246 177.808C272.857 174.992 271.662 171.28 271.662 166.672C271.662 162.917 272.771 159.504 274.99 156.432C277.209 153.275 280.366 150.8 284.462 149.008C288.643 147.216 293.422 146.32 298.798 146.32C306.819 146.32 313.262 148.368 318.126 152.464C323.075 156.475 325.721 161.979 326.062 168.976H311.47C311.214 165.819 309.934 163.301 307.63 161.424C305.326 159.547 302.211 158.608 298.286 158.608C294.446 158.608 291.502 159.333 289.454 160.784C287.406 162.235 286.382 164.155 286.382 166.544C286.382 168.421 287.065 170 288.43 171.28C289.795 172.56 291.459 173.584 293.422 174.352C295.385 175.035 298.286 175.931 302.126 177.04C307.246 178.405 311.427 179.813 314.67 181.264C317.998 182.629 320.857 184.677 323.246 187.408C325.635 190.139 326.873 193.765 326.958 198.288C326.958 202.299 325.849 205.883 323.63 209.04C321.411 212.197 318.254 214.672 314.158 216.464C310.147 218.256 305.411 219.152 299.95 219.152ZM379.205 146.32C384.581 146.32 389.36 147.472 393.541 149.776C397.808 152.08 401.136 155.493 403.525 160.016C406 164.539 407.237 170 407.237 176.4V218H392.773V178.576C392.773 172.261 391.194 167.44 388.037 164.112C384.88 160.699 380.57 158.992 375.109 158.992C369.648 158.992 365.296 160.699 362.053 164.112C358.896 167.44 357.317 172.261 357.317 178.576V218H342.725V123.28H357.317V155.664C359.792 152.677 362.906 150.373 366.661 148.752C370.501 147.131 374.682 146.32 379.205 146.32ZM440.442 123.28V218H425.85V123.28H440.442ZM523.088 147.472L479.824 251.152H464.72L479.056 216.848L451.28 147.472H467.536L487.376 201.232L507.984 147.472H523.088Z" fill="#181818"/>
</svg>
